<mxfile host="app.diagrams.net" modified="2023-11-18T13:00:55.833Z" agent="Mozilla/5.0 (Windows NT 10.0; Win64; x64) AppleWebKit/537.36 (KHTML, like Gecko) Chrome/119.0.0.0 Safari/537.36" etag="q8z4t6TjjiMcu1AuneDT" version="22.1.3" type="device">
  <diagram name="Página-1" id="YdoxaoMxAcrKadmhf8ba">
    <mxGraphModel dx="1195" dy="658" grid="1" gridSize="10" guides="1" tooltips="1" connect="1" arrows="1" fold="1" page="1" pageScale="1" pageWidth="827" pageHeight="1169" math="0" shadow="0">
      <root>
        <mxCell id="0" />
        <mxCell id="1" parent="0" />
        <mxCell id="6FDX0dz8mDDupZgGcFtC-3" value="" style="edgeStyle=orthogonalEdgeStyle;rounded=0;orthogonalLoop=1;jettySize=auto;html=1;" edge="1" parent="1" source="6FDX0dz8mDDupZgGcFtC-1" target="6FDX0dz8mDDupZgGcFtC-2">
          <mxGeometry relative="1" as="geometry" />
        </mxCell>
        <mxCell id="6FDX0dz8mDDupZgGcFtC-5" value="" style="edgeStyle=orthogonalEdgeStyle;rounded=0;orthogonalLoop=1;jettySize=auto;html=1;" edge="1" parent="1" source="6FDX0dz8mDDupZgGcFtC-1" target="6FDX0dz8mDDupZgGcFtC-4">
          <mxGeometry relative="1" as="geometry" />
        </mxCell>
        <mxCell id="6FDX0dz8mDDupZgGcFtC-1" value="Ecrã inicial" style="rounded=1;whiteSpace=wrap;html=1;" vertex="1" parent="1">
          <mxGeometry x="290" y="40" width="120" height="60" as="geometry" />
        </mxCell>
        <mxCell id="6FDX0dz8mDDupZgGcFtC-7" value="" style="edgeStyle=orthogonalEdgeStyle;rounded=0;orthogonalLoop=1;jettySize=auto;html=1;" edge="1" parent="1" source="6FDX0dz8mDDupZgGcFtC-2" target="6FDX0dz8mDDupZgGcFtC-6">
          <mxGeometry relative="1" as="geometry" />
        </mxCell>
        <mxCell id="6FDX0dz8mDDupZgGcFtC-9" value="" style="edgeStyle=orthogonalEdgeStyle;rounded=0;orthogonalLoop=1;jettySize=auto;html=1;" edge="1" parent="1" source="6FDX0dz8mDDupZgGcFtC-2" target="6FDX0dz8mDDupZgGcFtC-8">
          <mxGeometry relative="1" as="geometry" />
        </mxCell>
        <mxCell id="6FDX0dz8mDDupZgGcFtC-25" style="edgeStyle=orthogonalEdgeStyle;rounded=0;orthogonalLoop=1;jettySize=auto;html=1;" edge="1" parent="1" source="6FDX0dz8mDDupZgGcFtC-2" target="6FDX0dz8mDDupZgGcFtC-24">
          <mxGeometry relative="1" as="geometry" />
        </mxCell>
        <mxCell id="6FDX0dz8mDDupZgGcFtC-2" value="Login/Registo" style="whiteSpace=wrap;html=1;rounded=1;" vertex="1" parent="1">
          <mxGeometry x="290" y="160" width="120" height="60" as="geometry" />
        </mxCell>
        <mxCell id="6FDX0dz8mDDupZgGcFtC-4" value="Sobre nós" style="whiteSpace=wrap;html=1;rounded=1;arcSize=15;" vertex="1" parent="1">
          <mxGeometry x="630" y="160" width="120" height="60" as="geometry" />
        </mxCell>
        <mxCell id="6FDX0dz8mDDupZgGcFtC-36" value="" style="edgeStyle=orthogonalEdgeStyle;rounded=0;orthogonalLoop=1;jettySize=auto;html=1;" edge="1" parent="1" source="6FDX0dz8mDDupZgGcFtC-6" target="6FDX0dz8mDDupZgGcFtC-31">
          <mxGeometry relative="1" as="geometry">
            <Array as="points">
              <mxPoint x="170" y="400" />
              <mxPoint x="260" y="400" />
            </Array>
          </mxGeometry>
        </mxCell>
        <mxCell id="6FDX0dz8mDDupZgGcFtC-6" value="Ver jogos perto de mim" style="whiteSpace=wrap;html=1;rounded=1;" vertex="1" parent="1">
          <mxGeometry x="110" y="290" width="120" height="60" as="geometry" />
        </mxCell>
        <mxCell id="6FDX0dz8mDDupZgGcFtC-38" style="edgeStyle=orthogonalEdgeStyle;rounded=0;orthogonalLoop=1;jettySize=auto;html=1;exitX=0.5;exitY=1;exitDx=0;exitDy=0;entryX=0.5;entryY=0;entryDx=0;entryDy=0;" edge="1" parent="1" source="6FDX0dz8mDDupZgGcFtC-8" target="6FDX0dz8mDDupZgGcFtC-31">
          <mxGeometry relative="1" as="geometry">
            <Array as="points">
              <mxPoint x="350" y="400" />
              <mxPoint x="260" y="400" />
            </Array>
          </mxGeometry>
        </mxCell>
        <mxCell id="6FDX0dz8mDDupZgGcFtC-8" value="Procurar por jogos de determinada equipa" style="whiteSpace=wrap;html=1;rounded=1;" vertex="1" parent="1">
          <mxGeometry x="290" y="290" width="120" height="60" as="geometry" />
        </mxCell>
        <mxCell id="6FDX0dz8mDDupZgGcFtC-18" style="edgeStyle=orthogonalEdgeStyle;rounded=0;orthogonalLoop=1;jettySize=auto;html=1;entryX=0;entryY=0.5;entryDx=0;entryDy=0;" edge="1" parent="1" source="6FDX0dz8mDDupZgGcFtC-10" target="6FDX0dz8mDDupZgGcFtC-16">
          <mxGeometry relative="1" as="geometry" />
        </mxCell>
        <mxCell id="6FDX0dz8mDDupZgGcFtC-20" style="edgeStyle=orthogonalEdgeStyle;rounded=0;orthogonalLoop=1;jettySize=auto;html=1;exitX=0.5;exitY=1;exitDx=0;exitDy=0;entryX=0;entryY=0.5;entryDx=0;entryDy=0;" edge="1" parent="1" source="6FDX0dz8mDDupZgGcFtC-10" target="6FDX0dz8mDDupZgGcFtC-19">
          <mxGeometry relative="1" as="geometry" />
        </mxCell>
        <mxCell id="6FDX0dz8mDDupZgGcFtC-22" style="edgeStyle=orthogonalEdgeStyle;rounded=0;orthogonalLoop=1;jettySize=auto;html=1;exitX=0.5;exitY=1;exitDx=0;exitDy=0;entryX=0;entryY=0.5;entryDx=0;entryDy=0;" edge="1" parent="1" source="6FDX0dz8mDDupZgGcFtC-10" target="6FDX0dz8mDDupZgGcFtC-21">
          <mxGeometry relative="1" as="geometry" />
        </mxCell>
        <mxCell id="6FDX0dz8mDDupZgGcFtC-10" value="Detalhes Jogo" style="whiteSpace=wrap;html=1;rounded=1;" vertex="1" parent="1">
          <mxGeometry x="200" y="540" width="120" height="60" as="geometry" />
        </mxCell>
        <mxCell id="6FDX0dz8mDDupZgGcFtC-16" value="Detalhes Estacionamento" style="whiteSpace=wrap;html=1;rounded=1;" vertex="1" parent="1">
          <mxGeometry x="320" y="620" width="120" height="60" as="geometry" />
        </mxCell>
        <mxCell id="6FDX0dz8mDDupZgGcFtC-19" value="Detalhes de Refeições" style="whiteSpace=wrap;html=1;rounded=1;" vertex="1" parent="1">
          <mxGeometry x="310" y="700" width="120" height="60" as="geometry" />
        </mxCell>
        <mxCell id="6FDX0dz8mDDupZgGcFtC-21" value="Detalhes de direções" style="whiteSpace=wrap;html=1;rounded=1;" vertex="1" parent="1">
          <mxGeometry x="310" y="770" width="120" height="60" as="geometry" />
        </mxCell>
        <mxCell id="6FDX0dz8mDDupZgGcFtC-28" style="edgeStyle=orthogonalEdgeStyle;rounded=0;orthogonalLoop=1;jettySize=auto;html=1;entryX=0;entryY=0.5;entryDx=0;entryDy=0;exitX=0.5;exitY=1;exitDx=0;exitDy=0;" edge="1" parent="1" source="6FDX0dz8mDDupZgGcFtC-24" target="6FDX0dz8mDDupZgGcFtC-26">
          <mxGeometry relative="1" as="geometry" />
        </mxCell>
        <mxCell id="6FDX0dz8mDDupZgGcFtC-30" style="edgeStyle=orthogonalEdgeStyle;rounded=0;orthogonalLoop=1;jettySize=auto;html=1;exitX=0.5;exitY=1;exitDx=0;exitDy=0;entryX=0;entryY=0.5;entryDx=0;entryDy=0;" edge="1" parent="1" source="6FDX0dz8mDDupZgGcFtC-24" target="6FDX0dz8mDDupZgGcFtC-27">
          <mxGeometry relative="1" as="geometry" />
        </mxCell>
        <mxCell id="6FDX0dz8mDDupZgGcFtC-24" value="Perfil Utilizador" style="whiteSpace=wrap;html=1;rounded=1;" vertex="1" parent="1">
          <mxGeometry x="450" y="290" width="120" height="60" as="geometry" />
        </mxCell>
        <mxCell id="6FDX0dz8mDDupZgGcFtC-26" value="Alterar Credenciais" style="whiteSpace=wrap;html=1;rounded=1;arcSize=15;" vertex="1" parent="1">
          <mxGeometry x="580" y="370" width="120" height="60" as="geometry" />
        </mxCell>
        <mxCell id="6FDX0dz8mDDupZgGcFtC-27" value="Inativar Conta" style="whiteSpace=wrap;html=1;rounded=1;arcSize=15;" vertex="1" parent="1">
          <mxGeometry x="570" y="460" width="120" height="60" as="geometry" />
        </mxCell>
        <mxCell id="6FDX0dz8mDDupZgGcFtC-31" value="Selecionar Jogo" style="whiteSpace=wrap;html=1;rounded=1;" vertex="1" parent="1">
          <mxGeometry x="200" y="440" width="120" height="60" as="geometry" />
        </mxCell>
        <mxCell id="6FDX0dz8mDDupZgGcFtC-34" style="edgeStyle=orthogonalEdgeStyle;rounded=0;orthogonalLoop=1;jettySize=auto;html=1;exitX=0.5;exitY=1;exitDx=0;exitDy=0;entryX=0.5;entryY=0;entryDx=0;entryDy=0;" edge="1" parent="1" source="6FDX0dz8mDDupZgGcFtC-31" target="6FDX0dz8mDDupZgGcFtC-10">
          <mxGeometry relative="1" as="geometry" />
        </mxCell>
      </root>
    </mxGraphModel>
  </diagram>
</mxfile>
